<?xml version="1.0" encoding="UTF-8" standalone="no"?>
<!DOCTYPE svg PUBLIC "-//W3C//DTD SVG 1.1//EN" "http://www.w3.org/Graphics/SVG/1.1/DTD/svg11.dtd">
<svg version="1.1" xmlns="http://www.w3.org/2000/svg" xmlns:xlink="http://www.w3.org/1999/xlink" preserveAspectRatio="xMidYMid meet" viewBox="315.7 192.40000000000003 212.40000000000003 212.4000000000001" width="208.4" height="208.4"><defs><path d="M420.9 193.4C363.35 193.4 316.7 240.05 316.7 297.6C316.7 355.15 363.35 401.8 420.9 401.8C478.45 401.8 525.1 355.15 525.1 297.6C525.1 240.05 478.45 193.4 420.9 193.4Z" id="cFf85LIM4"></path><path d="M377.2 302.5C377 299.9 376.9 297.3 376.7 294.7C376.6 293.9 376.5 293.1 376.3 291.9C375.3 293.1 374.6 294.1 373.8 295C370.9 298.7 368.5 302.8 366.4 307C364.7 310.4 362.9 313.7 360.5 316.6C358.8 318.7 356.5 320 353.6 320.2C354.4 319.5 355.2 318.9 355.9 318.1C358.2 315.6 359.5 312.6 360.9 309.6C362.9 305.3 365 301.1 367.8 297.2C368.9 295.6 370.2 294.1 371.5 292.5C372.9 290.7 374.4 289.1 375.3 286.9C376.1 285 377.9 284.9 379 286.4C379.2 286.7 379.3 287 379.4 287.3C380.1 293.2 380.2 299.1 381.7 305C378 306.5 377.5 306.2 377.2 302.5Z" id="hLGtmWk9l"></path><path d="M448.64 286.69L448.86 286.74L449.08 286.8L449.28 286.88L449.48 286.97L449.68 287.07L449.86 287.19L450.04 287.33L450.2 287.47L450.37 287.63L450.52 287.8L450.67 287.98L450.81 288.17L450.95 288.37L451.08 288.58L451.2 288.8L451.23 288.86L451.26 288.92L451.29 288.99L451.32 289.05L451.35 289.12L451.38 289.18L451.41 289.25L451.44 289.32L451.47 289.39L451.5 289.46L451.53 289.53L451.56 289.61L451.59 289.68L451.62 289.75L451.65 289.83L451.68 289.9L451.71 289.98L451.74 290.05L451.77 290.13L451.8 290.2L452.01 290.2L452.22 290.2L452.42 290.21L452.62 290.23L452.81 290.25L453 290.28L453.19 290.31L453.36 290.36L453.53 290.42L453.69 290.5L453.84 290.59L453.97 290.7L454.1 290.82L454.22 290.96L454.32 291.13L454.4 291.31L454.48 291.52L454.54 291.76L454.58 292.01L454.6 292.3L454.56 292.33L454.51 292.37L454.47 292.4L454.43 292.44L454.39 292.48L454.35 292.52L454.31 292.56L454.27 292.6L454.23 292.65L454.19 292.69L454.15 292.73L454.1 292.77L454.06 292.81L454.01 292.84L453.97 292.88L453.92 292.91L453.87 292.94L453.81 292.96L453.76 292.98L453.7 293L453.46 293.1L453.23 293.2L453.02 293.32L452.83 293.45L452.66 293.59L452.5 293.73L452.36 293.89L452.22 294.05L452.1 294.22L451.99 294.4L451.88 294.58L451.78 294.77L451.69 294.96L451.6 295.16L451.52 295.36L451.44 295.57L451.36 295.77L451.27 295.98L451.19 296.19L451.1 296.4L450.92 296.8L450.73 297.21L450.55 297.61L450.36 298.01L450.16 298.41L449.97 298.8L449.77 299.2L449.56 299.59L449.36 299.98L449.15 300.37L448.94 300.76L448.72 301.15L448.51 301.54L448.29 301.92L448.06 302.31L447.84 302.69L447.61 303.07L447.37 303.45L447.14 303.82L446.9 304.2L446.35 305.05L445.78 305.88L445.2 306.7L444.6 307.5L443.98 308.29L443.35 309.07L442.7 309.84L442.05 310.6L441.38 311.35L440.7 312.09L440.01 312.82L439.32 313.55L438.62 314.28L437.91 315L437.2 315.72L436.48 316.43L435.76 317.15L435.04 317.86L434.32 318.58L433.6 319.3L433.36 319.53L433.11 319.72L432.86 319.89L432.61 320.04L432.35 320.17L432.09 320.28L431.83 320.37L431.57 320.44L431.3 320.5L431.04 320.55L430.77 320.59L430.5 320.62L430.24 320.65L429.97 320.68L429.7 320.71L429.44 320.73L429.18 320.76L428.92 320.8L428.66 320.85L428.4 320.9L428.35 320.74L428.31 320.59L428.28 320.44L428.26 320.31L428.26 320.18L428.26 320.06L428.28 319.94L428.3 319.83L428.33 319.72L428.38 319.63L428.42 319.53L428.48 319.44L428.54 319.35L428.61 319.27L428.68 319.18L428.76 319.1L428.84 319.03L428.92 318.95L429.01 318.88L429.1 318.8L430.03 318.1L430.95 317.38L431.84 316.65L432.72 315.9L433.57 315.13L434.41 314.35L435.22 313.55L436.02 312.73L436.8 311.9L437.56 311.05L438.31 310.19L439.04 309.31L439.75 308.42L440.44 307.51L441.12 306.59L441.79 305.66L442.44 304.71L443.07 303.76L443.69 302.78L444.3 301.8L444.48 301.53L444.65 301.26L444.83 300.98L444.99 300.71L445.16 300.43L445.32 300.15L445.48 299.86L445.63 299.58L445.78 299.29L445.93 299L446.07 298.71L446.2 298.41L446.33 298.11L446.46 297.8L446.58 297.5L446.69 297.19L446.8 296.87L446.91 296.55L447.01 296.23L447.1 295.9L446.79 295.87L446.48 295.85L446.17 295.82L445.87 295.8L445.58 295.78L445.29 295.76L445 295.74L444.71 295.72L444.43 295.71L444.15 295.69L443.87 295.67L443.6 295.65L443.33 295.63L443.06 295.6L442.8 295.58L442.53 295.55L442.27 295.52L442.01 295.48L441.76 295.44L441.5 295.4L441.2 295.35L440.91 295.28L440.65 295.19L440.41 295.09L440.19 294.98L440 294.85L439.83 294.71L439.68 294.55L439.55 294.38L439.45 294.2L439.37 294.01L439.32 293.8L439.29 293.59L439.29 293.36L439.31 293.12L439.35 292.88L439.43 292.62L439.52 292.35L439.65 292.08L439.8 291.8L440.06 291.39L440.34 290.99L440.63 290.61L440.93 290.24L441.24 289.89L441.57 289.56L441.91 289.24L442.26 288.94L442.62 288.65L443 288.39L443.39 288.14L443.79 287.9L444.2 287.69L444.62 287.49L445.06 287.31L445.51 287.15L445.96 287.01L446.43 286.89L446.91 286.78L447.4 286.7L447.67 286.66L447.92 286.65L448.17 286.64L448.41 286.66L448.64 286.69ZM444.69 290.85L443.88 291.83L443.3 293.1L444.53 293.47L445.66 293.54L446.66 293.28L447.5 292.7L447.87 292L447.84 291.18L447.49 290.31L446.9 289.5L445.7 290.09L444.69 290.85Z" id="bHfIjl6ix"></path><path d="M465.19 286.72L465.37 286.74L465.55 286.76L465.72 286.8L465.88 286.84L466.04 286.9L466.19 286.96L466.33 287.02L466.47 287.1L466.6 287.18L466.73 287.27L466.84 287.36L466.95 287.46L467.06 287.57L467.16 287.69L467.25 287.81L467.33 287.94L467.41 288.08L467.48 288.22L467.55 288.37L467.61 288.53L467.66 288.69L467.7 288.86L467.74 289.03L467.77 289.21L467.8 289.4L467.81 289.46L467.82 289.51L467.83 289.57L467.83 289.63L467.84 289.69L467.84 289.75L467.84 289.81L467.84 289.87L467.84 289.93L467.84 289.99L467.84 290.05L467.84 290.11L467.84 290.17L467.84 290.23L467.83 290.29L467.83 290.35L467.83 290.41L467.82 290.47L467.82 290.53L467.81 290.59L467.81 290.65L467.81 290.71L467.81 290.77L467.8 290.83L467.8 290.89L467.8 290.94L467.8 291L467.8 291.06L467.8 291.11L467.79 291.17L467.79 291.22L467.78 291.28L467.77 291.34L467.76 291.39L467.76 291.45L467.74 291.51L467.73 291.57L467.72 291.62L467.71 291.68L467.69 291.74L467.68 291.81L467.67 291.87L467.65 291.93L467.64 291.99L467.62 292.06L467.61 292.13L467.59 292.19L467.58 292.26L467.56 292.33L467.55 292.4L467.54 292.47L467.52 292.55L467.51 292.62L467.5 292.7L467.71 292.71L467.92 292.71L468.13 292.71L468.34 292.71L468.54 292.7L468.75 292.69L468.95 292.68L469.16 292.66L469.36 292.64L469.56 292.61L469.76 292.58L469.96 292.55L470.15 292.51L470.35 292.47L470.54 292.42L470.73 292.37L470.92 292.32L471.11 292.26L471.29 292.2L471.48 292.14L471.66 292.07L471.84 292L472.01 291.93L472.19 291.85L472.36 291.77L472.53 291.69L472.7 291.6L472.74 291.58L472.79 291.55L472.83 291.51L472.87 291.47L472.91 291.43L472.95 291.39L472.99 291.34L473.03 291.29L473.06 291.23L473.1 291.18L473.13 291.12L473.17 291.06L473.2 290.99L473.23 290.93L473.26 290.87L473.28 290.8L473.31 290.73L473.34 290.67L473.36 290.6L473.38 290.53L473.4 290.47L473.42 290.4L473.44 290.34L473.46 290.28L473.47 290.22L473.49 290.16L473.5 290.1L473.56 289.89L473.62 289.7L473.68 289.51L473.75 289.33L473.82 289.17L473.89 289.01L473.97 288.86L474.05 288.72L474.14 288.6L474.23 288.48L474.32 288.37L474.42 288.27L474.52 288.18L474.63 288.1L474.74 288.03L474.85 287.97L474.97 287.91L475.09 287.87L475.22 287.84L475.35 287.81L475.49 287.8L475.63 287.79L475.77 287.79L475.92 287.81L476.08 287.83L476.24 287.86L476.4 287.9L476.55 287.95L476.7 288.01L476.84 288.08L476.97 288.16L477.1 288.25L477.22 288.34L477.34 288.45L477.44 288.56L477.54 288.68L477.63 288.81L477.72 288.94L477.79 289.08L477.86 289.23L477.92 289.38L477.97 289.53L478.01 289.69L478.04 289.85L478.06 290.02L478.07 290.19L478.07 290.36L478.07 290.53L478.05 290.71L478.02 290.89L477.98 291.06L477.93 291.24L477.87 291.42L477.8 291.6L477.79 291.62L477.78 291.65L477.77 291.67L477.76 291.69L477.74 291.72L477.73 291.75L477.72 291.77L477.71 291.8L477.7 291.83L477.69 291.85L477.68 291.88L477.67 291.91L477.63 291.99L477.62 292.02L477.61 292.05L477.6 292.07L477.59 292.1L477.58 292.13L477.57 292.15L477.56 292.18L477.54 292.21L477.53 292.23L477.52 292.25L477.51 292.28L477.5 292.3L477.6 292.42L477.7 292.53L477.8 292.63L477.91 292.72L478.01 292.8L478.11 292.88L478.22 292.94L478.33 293L478.43 293.06L478.54 293.1L478.65 293.14L478.76 293.17L478.87 293.19L478.98 293.21L479.09 293.22L479.21 293.22L479.32 293.22L479.43 293.21L479.55 293.2L479.66 293.18L479.78 293.15L479.9 293.12L480.02 293.09L480.14 293.05L480.26 293L480.38 292.95L480.5 292.9L480.69 292.81L480.87 292.72L481.06 292.62L481.24 292.52L481.42 292.42L481.6 292.32L481.77 292.21L481.95 292.1L482.12 291.99L482.29 291.87L482.45 291.75L482.61 291.63L482.77 291.5L482.93 291.37L483.08 291.24L483.23 291.1L483.37 290.96L483.51 290.81L483.65 290.66L483.79 290.51L483.92 290.35L484.04 290.18L484.16 290.02L484.28 289.84L484.39 289.67L484.5 289.49L484.6 289.3L484.64 289.22L484.69 289.15L484.73 289.07L484.78 289L484.83 288.92L484.87 288.85L484.92 288.78L484.97 288.71L485.02 288.65L485.07 288.58L485.12 288.52L485.18 288.46L485.23 288.4L485.29 288.35L485.35 288.29L485.42 288.24L485.48 288.2L485.55 288.15L485.62 288.11L485.69 288.07L485.77 288.04L485.85 288L485.93 287.98L486.02 287.95L486.11 287.93L486.2 287.91L486.3 287.9L486.42 287.89L486.54 287.9L486.66 287.91L486.77 287.93L486.88 287.96L486.99 288L487.09 288.04L487.19 288.09L487.29 288.15L487.38 288.22L487.46 288.29L487.54 288.36L487.62 288.45L487.68 288.53L487.74 288.62L487.8 288.72L487.84 288.81L487.88 288.91L487.91 289.02L487.93 289.12L487.94 289.23L487.94 289.34L487.93 289.45L487.92 289.56L487.89 289.68L487.85 289.79L487.8 289.9L487.6 290.35L487.37 290.79L487.1 291.21L486.8 291.62L486.47 292.01L486.11 292.39L485.73 292.75L485.32 293.09L484.89 293.41L484.44 293.72L483.98 294L483.5 294.26L483 294.49L482.5 294.7L481.98 294.89L481.46 295.05L480.94 295.18L480.41 295.29L479.88 295.36L479.35 295.41L478.83 295.42L478.31 295.4L477.81 295.35L477.31 295.27L476.82 295.15L476.35 294.99L475.9 294.8L475.73 294.72L475.57 294.65L475.4 294.59L475.24 294.52L475.08 294.46L474.91 294.41L474.75 294.36L474.59 294.31L474.43 294.27L474.26 294.23L474.1 294.19L473.94 294.16L473.78 294.14L473.62 294.11L473.46 294.1L473.3 294.08L473.14 294.07L472.97 294.07L472.81 294.07L472.65 294.07L472.49 294.07L472.32 294.08L472.16 294.1L472 294.12L471.83 294.14L471.67 294.17L471.5 294.2L471.33 294.23L471.17 294.26L471 294.29L470.83 294.32L470.66 294.35L470.49 294.37L470.31 294.4L470.14 294.42L469.97 294.44L469.79 294.47L469.62 294.49L469.44 294.51L469.26 294.53L469.09 294.55L468.91 294.57L468.73 294.59L468.55 294.6L468.37 294.62L468.18 294.64L468 294.66L467.82 294.68L467.63 294.7L467.45 294.72L467.26 294.74L467.08 294.76L466.89 294.78L466.7 294.8L466.51 295.29L466.32 295.78L466.13 296.26L465.94 296.75L465.75 297.24L465.55 297.72L465.36 298.21L465.17 298.69L464.97 299.18L464.78 299.66L464.59 300.15L464.39 300.63L464.2 301.12L464 301.61L463.81 302.09L463.61 302.58L463.42 303.07L463.23 303.56L463.03 304.04L462.84 304.54L462.65 305.03L462.45 305.52L462.26 306.01L462.07 306.51L461.88 307L461.69 307.5L461.5 308L461.35 308.4L461.21 308.78L461.08 309.14L460.95 309.48L460.83 309.81L460.72 310.12L460.61 310.42L460.51 310.71L460.41 310.99L460.31 311.25L460.21 311.52L460.11 311.77L460 312.02L459.9 312.27L459.79 312.52L459.67 312.77L459.55 313.03L459.43 313.28L459.29 313.54L459.15 313.81L458.99 314.09L458.83 314.37L458.65 314.67L458.46 314.98L458.26 315.3L458.04 315.64L457.8 316L457.73 316.1L457.67 316.2L457.6 316.3L457.53 316.4L457.46 316.5L457.39 316.6L457.31 316.7L457.24 316.8L457.17 316.9L457.1 316.99L457.02 317.09L456.95 317.19L456.87 317.29L456.8 317.39L456.72 317.48L456.65 317.58L456.57 317.68L456.5 317.77L456.42 317.87L456.34 317.96L456.27 318.05L456.19 318.15L456.11 318.24L456.03 318.33L455.96 318.42L455.88 318.51L455.8 318.6L455.62 318.85L455.43 319.07L455.23 319.28L455.03 319.47L454.82 319.64L454.61 319.79L454.39 319.93L454.17 320.06L453.94 320.17L453.7 320.27L453.46 320.36L453.22 320.43L452.97 320.5L452.72 320.55L452.47 320.6L452.22 320.64L451.96 320.67L451.7 320.7L451.43 320.72L451.17 320.73L450.9 320.75L450.64 320.76L450.37 320.77L450.1 320.77L449.83 320.78L449.57 320.79L449.3 320.8L449.23 320.79L449.19 320.75L449.19 320.69L449.22 320.61L449.27 320.51L449.35 320.39L449.46 320.26L449.58 320.11L449.73 319.95L449.89 319.77L450.06 319.59L450.25 319.39L450.45 319.19L450.65 318.98L450.86 318.77L451.08 318.55L451.29 318.34L451.51 318.12L451.72 317.9L451.92 317.69L452.12 317.48L452.3 317.28L452.48 317.08L452.64 316.89L452.78 316.72L452.9 316.55L453 316.4L453.14 316.19L453.27 315.99L453.4 315.81L453.52 315.64L453.63 315.49L453.74 315.34L453.84 315.21L453.93 315.08L454.03 314.96L454.11 314.85L454.2 314.74L454.28 314.63L454.36 314.53L454.44 314.42L454.52 314.31L454.59 314.2L454.67 314.09L454.74 313.97L454.82 313.84L454.89 313.71L454.97 313.56L455.05 313.4L455.13 313.23L455.22 313.05L455.31 312.85L455.4 312.63L455.5 312.4L455.76 311.78L456.02 311.16L456.28 310.54L456.53 309.92L456.78 309.31L457.02 308.69L457.26 308.08L457.5 307.46L457.74 306.85L457.98 306.23L458.21 305.62L458.44 305.01L458.67 304.39L458.9 303.78L459.13 303.17L459.36 302.55L459.59 301.94L459.83 301.32L460.06 300.7L460.29 300.08L460.53 299.46L460.77 298.84L461.01 298.22L461.25 297.59L461.5 296.96L461.75 296.33L462 295.7L462.05 295.68L462.1 295.65L462.15 295.62L462.2 295.59L462.24 295.56L462.28 295.53L462.32 295.49L462.35 295.45L462.38 295.41L462.41 295.37L462.44 295.33L462.46 295.28L462.49 295.24L462.51 295.19L462.53 295.14L462.55 295.09L462.57 295.04L462.59 294.99L462.6 294.94L462.62 294.88L462.63 294.83L462.64 294.78L462.65 294.72L462.67 294.67L462.68 294.61L462.69 294.56L462.7 294.5L462.59 294.45L462.48 294.39L462.37 294.34L462.27 294.29L462.16 294.24L462.06 294.19L461.96 294.15L461.86 294.1L461.76 294.06L461.66 294.01L461.56 293.97L461.47 293.93L461.37 293.88L461.28 293.84L461.18 293.8L461.09 293.76L461 293.72L460.91 293.68L460.82 293.64L460.73 293.6L460.64 293.56L460.55 293.51L460.46 293.47L460.37 293.43L460.28 293.39L460.19 293.34L460.1 293.3L459.95 293.2L459.81 293.09L459.67 292.97L459.54 292.85L459.43 292.73L459.32 292.59L459.22 292.46L459.13 292.32L459.05 292.18L458.98 292.03L458.91 291.88L458.86 291.73L458.82 291.58L458.78 291.42L458.76 291.27L458.75 291.11L458.74 290.95L458.75 290.79L458.77 290.63L458.8 290.47L458.84 290.31L458.89 290.16L458.95 290L459.02 289.85L459.1 289.69L459.19 289.55L459.3 289.4L459.46 289.21L459.62 289.03L459.78 288.86L459.95 288.69L460.13 288.53L460.31 288.37L460.49 288.22L460.67 288.08L460.86 287.94L461.05 287.81L461.25 287.69L461.45 287.57L461.65 287.46L461.85 287.36L462.06 287.27L462.27 287.18L462.49 287.1L462.71 287.02L462.93 286.96L463.15 286.9L463.38 286.84L463.61 286.8L463.84 286.76L464.08 286.74L464.32 286.72L464.56 286.7L464.8 286.7L465 286.7L465.19 286.72ZM462.42 290.8L462.8 291.37L463.7 291.6L464.16 291.2L464.49 290.35L464.42 289.58L463.7 289.4L462.69 290.08L462.42 290.8Z" id="cgDHmeqrE"></path><path d="M468 277C466.5 278.2 464.6 278.8 462.9 279.7C462.8 279.6 462.7 279.5 462.6 279.4C462.8 279.1 462.9 278.7 463.1 278.5C466.2 275.3 469.4 272.2 472.5 269C473 268.5 473.6 268 474.1 267.4C475.9 265.6 477.1 265.8 478.3 268.4C474.8 271.3 471.5 274.3 468 277Z" id="b2iDBfC6id"></path><path d="M412.19 286.72L412.37 286.74L412.55 286.76L412.72 286.8L412.88 286.84L413.04 286.9L413.19 286.96L413.33 287.02L413.47 287.1L413.6 287.18L413.73 287.27L413.84 287.36L413.95 287.46L414.06 287.57L414.16 287.69L414.25 287.81L414.33 287.94L414.41 288.08L414.48 288.22L414.55 288.37L414.61 288.53L414.66 288.69L414.7 288.86L414.74 289.03L414.77 289.21L414.8 289.4L414.81 289.46L414.82 289.51L414.83 289.57L414.83 289.63L414.84 289.69L414.84 289.75L414.84 289.81L414.84 289.87L414.84 289.93L414.84 289.99L414.84 290.05L414.84 290.11L414.84 290.17L414.84 290.23L414.83 290.29L414.83 290.35L414.83 290.41L414.82 290.47L414.82 290.53L414.81 290.59L414.81 290.65L414.81 290.71L414.81 290.77L414.8 290.83L414.8 290.89L414.8 290.94L414.8 291L414.8 291.06L414.8 291.11L414.79 291.17L414.79 291.22L414.78 291.28L414.77 291.34L414.76 291.39L414.76 291.45L414.74 291.51L414.73 291.57L414.72 291.62L414.71 291.68L414.69 291.74L414.68 291.81L414.67 291.87L414.65 291.93L414.64 291.99L414.62 292.06L414.61 292.13L414.59 292.19L414.58 292.26L414.56 292.33L414.55 292.4L414.54 292.47L414.52 292.55L414.51 292.62L414.5 292.7L414.71 292.71L414.92 292.71L415.13 292.71L415.34 292.71L415.54 292.7L415.75 292.69L415.95 292.68L416.16 292.66L416.36 292.64L416.56 292.61L416.76 292.58L416.96 292.55L417.15 292.51L417.35 292.47L417.54 292.42L417.73 292.37L417.92 292.32L418.11 292.26L418.29 292.2L418.48 292.14L418.66 292.07L418.84 292L419.01 291.93L419.19 291.85L419.36 291.77L419.53 291.69L419.7 291.6L419.74 291.58L419.79 291.55L419.83 291.51L419.87 291.47L419.91 291.43L419.95 291.39L419.99 291.34L420.03 291.29L420.06 291.23L420.1 291.18L420.13 291.12L420.17 291.06L420.2 290.99L420.23 290.93L420.26 290.87L420.28 290.8L420.31 290.73L420.34 290.67L420.36 290.6L420.38 290.53L420.4 290.47L420.42 290.4L420.44 290.34L420.46 290.28L420.47 290.22L420.49 290.16L420.5 290.1L420.56 289.89L420.62 289.7L420.68 289.51L420.75 289.33L420.82 289.17L420.89 289.01L420.97 288.86L421.05 288.72L421.14 288.6L421.23 288.48L421.32 288.37L421.42 288.27L421.52 288.18L421.63 288.1L421.74 288.03L421.85 287.97L421.97 287.91L422.09 287.87L422.22 287.84L422.35 287.81L422.49 287.8L422.63 287.79L422.77 287.79L422.92 287.81L423.08 287.83L423.24 287.86L423.4 287.9L423.55 287.95L423.7 288.01L423.84 288.08L423.97 288.16L424.1 288.25L424.22 288.34L424.34 288.45L424.44 288.56L424.54 288.68L424.63 288.81L424.72 288.94L424.79 289.08L424.86 289.23L424.92 289.38L424.97 289.53L425.01 289.69L425.04 289.85L425.06 290.02L425.07 290.19L425.07 290.36L425.07 290.53L425.05 290.71L425.02 290.89L424.98 291.06L424.93 291.24L424.87 291.42L424.8 291.6L424.79 291.62L424.78 291.65L424.77 291.67L424.76 291.69L424.74 291.72L424.73 291.75L424.72 291.77L424.71 291.8L424.7 291.83L424.69 291.85L424.68 291.88L424.67 291.91L424.63 291.99L424.62 292.02L424.61 292.05L424.6 292.07L424.59 292.1L424.58 292.13L424.57 292.15L424.56 292.18L424.54 292.21L424.53 292.23L424.52 292.25L424.51 292.28L424.5 292.3L424.6 292.42L424.7 292.53L424.8 292.63L424.91 292.72L425.01 292.8L425.11 292.88L425.22 292.94L425.33 293L425.43 293.06L425.54 293.1L425.65 293.14L425.76 293.17L425.87 293.19L425.98 293.21L426.09 293.22L426.21 293.22L426.32 293.22L426.43 293.21L426.55 293.2L426.66 293.18L426.78 293.15L426.9 293.12L427.02 293.09L427.14 293.05L427.26 293L427.38 292.95L427.5 292.9L427.69 292.81L427.87 292.72L428.06 292.62L428.24 292.52L428.42 292.42L428.6 292.32L428.77 292.21L428.95 292.1L429.12 291.99L429.29 291.87L429.45 291.75L429.61 291.63L429.77 291.5L429.93 291.37L430.08 291.24L430.23 291.1L430.37 290.96L430.51 290.81L430.65 290.66L430.79 290.51L430.92 290.35L431.04 290.18L431.16 290.02L431.28 289.84L431.39 289.67L431.5 289.49L431.6 289.3L431.64 289.22L431.69 289.15L431.73 289.07L431.78 289L431.83 288.92L431.87 288.85L431.92 288.78L431.97 288.71L432.02 288.65L432.07 288.58L432.12 288.52L432.18 288.46L432.23 288.4L432.29 288.35L432.35 288.29L432.42 288.24L432.48 288.2L432.55 288.15L432.62 288.11L432.69 288.07L432.77 288.04L432.85 288L432.93 287.98L433.02 287.95L433.11 287.93L433.2 287.91L433.3 287.9L433.42 287.89L433.54 287.9L433.66 287.91L433.77 287.93L433.88 287.96L433.99 288L434.09 288.04L434.19 288.09L434.29 288.15L434.38 288.22L434.46 288.29L434.54 288.36L434.62 288.45L434.68 288.53L434.74 288.62L434.8 288.72L434.84 288.81L434.88 288.91L434.91 289.02L434.93 289.12L434.94 289.23L434.94 289.34L434.93 289.45L434.92 289.56L434.89 289.68L434.85 289.79L434.8 289.9L434.6 290.35L434.37 290.79L434.1 291.21L433.8 291.62L433.47 292.01L433.11 292.39L432.73 292.75L432.32 293.09L431.89 293.41L431.44 293.72L430.98 294L430.5 294.26L430 294.49L429.5 294.7L428.98 294.89L428.46 295.05L427.94 295.18L427.41 295.29L426.88 295.36L426.35 295.41L425.83 295.42L425.31 295.4L424.81 295.35L424.31 295.27L423.82 295.15L423.35 294.99L422.9 294.8L422.73 294.72L422.57 294.65L422.4 294.59L422.24 294.52L422.08 294.46L421.91 294.41L421.75 294.36L421.59 294.31L421.43 294.27L421.26 294.23L421.1 294.19L420.94 294.16L420.78 294.14L420.62 294.11L420.46 294.1L420.3 294.08L420.14 294.07L419.97 294.07L419.81 294.07L419.65 294.07L419.49 294.07L419.32 294.08L419.16 294.1L419 294.12L418.83 294.14L418.67 294.17L418.5 294.2L418.33 294.23L418.17 294.26L418 294.29L417.83 294.32L417.66 294.35L417.49 294.37L417.31 294.4L417.14 294.42L416.97 294.44L416.79 294.47L416.62 294.49L416.44 294.51L416.26 294.53L416.09 294.55L415.91 294.57L415.73 294.59L415.55 294.6L415.37 294.62L415.18 294.64L415 294.66L414.82 294.68L414.63 294.7L414.45 294.72L414.26 294.74L414.08 294.76L413.89 294.78L413.7 294.8L413.51 295.29L413.32 295.78L413.13 296.26L412.94 296.75L412.75 297.24L412.55 297.72L412.36 298.21L412.17 298.69L411.97 299.18L411.78 299.66L411.59 300.15L411.39 300.63L411.2 301.12L411 301.61L410.81 302.09L410.61 302.58L410.42 303.07L410.23 303.56L410.03 304.04L409.84 304.54L409.65 305.03L409.45 305.52L409.26 306.01L409.07 306.51L408.88 307L408.69 307.5L408.5 308L408.35 308.4L408.21 308.78L408.08 309.14L407.95 309.48L407.83 309.81L407.72 310.12L407.61 310.42L407.51 310.71L407.41 310.99L407.31 311.25L407.21 311.52L407.11 311.77L407 312.02L406.9 312.27L406.79 312.52L406.67 312.77L406.55 313.03L406.43 313.28L406.29 313.54L406.15 313.81L405.99 314.09L405.83 314.37L405.65 314.67L405.46 314.98L405.26 315.3L405.04 315.64L404.8 316L404.73 316.1L404.67 316.2L404.6 316.3L404.53 316.4L404.46 316.5L404.39 316.6L404.31 316.7L404.24 316.8L404.17 316.9L404.1 316.99L404.02 317.09L403.95 317.19L403.87 317.29L403.8 317.39L403.72 317.48L403.65 317.58L403.57 317.68L403.5 317.77L403.42 317.87L403.34 317.96L403.27 318.05L403.19 318.15L403.11 318.24L403.03 318.33L402.96 318.42L402.88 318.51L402.8 318.6L402.62 318.85L402.43 319.07L402.23 319.28L402.03 319.47L401.82 319.64L401.61 319.79L401.39 319.93L401.17 320.06L400.94 320.17L400.7 320.27L400.46 320.36L400.22 320.43L399.97 320.5L399.72 320.55L399.47 320.6L399.22 320.64L398.96 320.67L398.7 320.7L398.43 320.72L398.17 320.73L397.9 320.75L397.64 320.76L397.37 320.77L397.1 320.77L396.83 320.78L396.57 320.79L396.3 320.8L396.23 320.79L396.19 320.75L396.19 320.69L396.22 320.61L396.27 320.51L396.35 320.39L396.46 320.26L396.58 320.11L396.73 319.95L396.89 319.77L397.06 319.59L397.25 319.39L397.45 319.19L397.65 318.98L397.86 318.77L398.08 318.55L398.29 318.34L398.51 318.12L398.72 317.9L398.92 317.69L399.12 317.48L399.3 317.28L399.48 317.08L399.64 316.89L399.78 316.72L399.9 316.55L400 316.4L400.14 316.19L400.27 315.99L400.4 315.81L400.52 315.64L400.63 315.49L400.74 315.34L400.84 315.21L400.93 315.08L401.03 314.96L401.11 314.85L401.2 314.74L401.28 314.63L401.36 314.53L401.44 314.42L401.52 314.31L401.59 314.2L401.67 314.09L401.74 313.97L401.82 313.84L401.89 313.71L401.97 313.56L402.05 313.4L402.13 313.23L402.22 313.05L402.31 312.85L402.4 312.63L402.5 312.4L402.76 311.78L403.02 311.16L403.28 310.54L403.53 309.92L403.78 309.31L404.02 308.69L404.26 308.08L404.5 307.46L404.74 306.85L404.98 306.23L405.21 305.62L405.44 305.01L405.67 304.39L405.9 303.78L406.13 303.17L406.36 302.55L406.59 301.94L406.83 301.32L407.06 300.7L407.29 300.08L407.53 299.46L407.77 298.84L408.01 298.22L408.25 297.59L408.5 296.96L408.75 296.33L409 295.7L409.05 295.68L409.1 295.65L409.15 295.62L409.19 295.59L409.23 295.56L409.27 295.53L409.3 295.49L409.33 295.45L409.36 295.41L409.39 295.37L409.41 295.33L409.43 295.28L409.45 295.24L409.47 295.19L409.49 295.14L409.51 295.09L409.52 295.04L409.54 294.99L409.56 294.94L409.57 294.88L409.59 294.83L409.61 294.78L409.62 294.72L409.64 294.67L409.66 294.61L409.68 294.56L409.7 294.5L409.59 294.45L409.48 294.39L409.37 294.34L409.27 294.29L409.16 294.24L409.06 294.19L408.96 294.15L408.86 294.1L408.76 294.06L408.66 294.01L408.56 293.97L408.47 293.93L408.37 293.88L408.28 293.84L408.18 293.8L408.09 293.76L408 293.72L407.91 293.68L407.82 293.64L407.73 293.6L407.64 293.56L407.55 293.51L407.46 293.47L407.37 293.43L407.28 293.39L407.19 293.34L407.1 293.3L406.95 293.2L406.81 293.09L406.67 292.97L406.54 292.85L406.43 292.73L406.32 292.59L406.22 292.46L406.13 292.32L406.05 292.18L405.98 292.03L405.91 291.88L405.86 291.73L405.82 291.58L405.78 291.42L405.76 291.27L405.75 291.11L405.74 290.95L405.75 290.79L405.77 290.63L405.8 290.47L405.84 290.31L405.89 290.16L405.95 290L406.02 289.85L406.1 289.69L406.19 289.55L406.3 289.4L406.46 289.21L406.62 289.03L406.78 288.86L406.95 288.69L407.13 288.53L407.31 288.37L407.49 288.22L407.67 288.08L407.86 287.94L408.05 287.81L408.25 287.69L408.45 287.57L408.65 287.46L408.85 287.36L409.06 287.27L409.27 287.18L409.49 287.1L409.71 287.02L409.93 286.96L410.15 286.9L410.38 286.84L410.61 286.8L410.84 286.76L411.08 286.74L411.32 286.72L411.56 286.7L411.8 286.7L412 286.7L412.19 286.72ZM409.42 290.8L409.8 291.37L410.7 291.6L411.15 291.2L411.45 290.35L411.38 289.58L410.7 289.4L409.69 290.08L409.42 290.8Z" id="cKlZqx6a1"></path><path d="M414.9 277C413.4 278.2 411.5 278.8 409.8 279.7C409.7 279.6 409.6 279.5 409.5 279.4C409.7 279.1 409.8 278.7 410 278.5C413.1 275.3 416.3 272.2 419.4 269C419.9 268.5 420.5 268 421 267.4C422.9 265.6 424.1 265.8 425.2 268.4C421.7 271.3 418.4 274.3 414.9 277Z" id="dE225B5wl"></path><path d="M391.6 277C390.1 278.2 388.2 278.8 386.5 279.7C386.4 279.6 386.3 279.5 386.2 279.4C386.4 279.1 386.5 278.7 386.7 278.5C389.8 275.3 393 272.2 396.1 269C396.6 268.5 397.2 268 397.7 267.4C399.6 265.6 400.8 265.8 401.9 268.4C398.4 271.3 395.1 274.3 391.6 277Z" id="dJjlVwOnG"></path><path d="M366.3 325.2C364.7 327.5 362.4 328.8 359.7 329.7C362.7 325 365.7 320.4 368.8 315.7C370.1 316.2 371.2 316.5 371.5 317.9C369.7 320.4 368 322.7 366.3 325.2Z" id="b2ZyZCtGK2"></path><path d="M435.5 278.3C439.4 274.4 443.3 270.6 447.2 266.7C448.8 265.1 450.1 265.3 451 267.6C446 272.5 440.5 276.8 434.3 280.2C434.2 280 434.1 279.9 434 279.8C434.5 279.3 435 278.8 435.5 278.3Z" id="g2oid9ifJ"></path><path d="M440.5 283.3C444.4 279.4 448.3 275.6 452.2 271.7C453.8 270.1 455.1 270.3 456 272.6C451 277.5 445.5 281.8 439.3 285.2C439.2 285 439.1 284.9 439 284.8C439.5 284.3 440 283.8 440.5 283.3Z" id="d4n7Vrc84"></path><path d="M395.54 286.69L395.76 286.74L395.98 286.8L396.18 286.88L396.38 286.97L396.58 287.07L396.76 287.19L396.94 287.33L397.1 287.47L397.27 287.63L397.42 287.8L397.57 287.98L397.71 288.17L397.85 288.37L397.98 288.58L398.1 288.8L398.13 288.86L398.16 288.92L398.19 288.99L398.22 289.05L398.25 289.12L398.28 289.18L398.31 289.25L398.34 289.32L398.37 289.39L398.4 289.46L398.43 289.53L398.46 289.61L398.49 289.68L398.52 289.75L398.55 289.83L398.58 289.9L398.61 289.98L398.64 290.05L398.67 290.13L398.7 290.2L398.91 290.2L399.12 290.2L399.32 290.21L399.52 290.23L399.71 290.25L399.9 290.28L400.09 290.31L400.26 290.36L400.43 290.42L400.59 290.5L400.74 290.59L400.87 290.7L401 290.82L401.12 290.96L401.22 291.13L401.3 291.31L401.38 291.52L401.44 291.76L401.48 292.01L401.5 292.3L401.46 292.33L401.41 292.37L401.37 292.4L401.33 292.44L401.29 292.48L401.25 292.52L401.21 292.56L401.17 292.6L401.13 292.65L401.09 292.69L401.05 292.73L401 292.77L400.96 292.81L400.91 292.84L400.87 292.88L400.82 292.91L400.77 292.94L400.71 292.96L400.66 292.98L400.6 293L400.36 293.1L400.13 293.2L399.92 293.32L399.73 293.45L399.56 293.59L399.4 293.73L399.26 293.89L399.12 294.05L399 294.22L398.89 294.4L398.78 294.58L398.68 294.77L398.59 294.96L398.5 295.16L398.42 295.36L398.34 295.57L398.26 295.77L398.17 295.98L398.09 296.19L398 296.4L397.82 296.8L397.63 297.21L397.45 297.61L397.26 298.01L397.06 298.41L396.87 298.8L396.67 299.2L396.46 299.59L396.26 299.98L396.05 300.37L395.84 300.76L395.62 301.15L395.41 301.54L395.19 301.92L394.96 302.31L394.74 302.69L394.51 303.07L394.27 303.45L394.04 303.82L393.8 304.2L393.25 305.05L392.68 305.88L392.1 306.7L391.5 307.5L390.88 308.29L390.25 309.07L389.6 309.84L388.95 310.6L388.28 311.35L387.6 312.09L386.91 312.82L386.22 313.55L385.52 314.28L384.81 315L384.1 315.72L383.38 316.43L382.66 317.15L381.94 317.86L381.22 318.58L380.5 319.3L380.26 319.53L380.01 319.72L379.76 319.89L379.51 320.04L379.25 320.17L378.99 320.28L378.73 320.37L378.47 320.44L378.2 320.5L377.94 320.55L377.67 320.59L377.4 320.62L377.14 320.65L376.87 320.68L376.6 320.71L376.34 320.73L376.08 320.76L375.82 320.8L375.56 320.85L375.3 320.9L375.25 320.74L375.21 320.59L375.18 320.44L375.16 320.31L375.16 320.18L375.16 320.06L375.18 319.94L375.2 319.83L375.23 319.72L375.28 319.63L375.32 319.53L375.38 319.44L375.44 319.35L375.51 319.27L375.58 319.18L375.66 319.1L375.74 319.03L375.82 318.95L375.91 318.88L376 318.8L376.93 318.1L377.85 317.38L378.74 316.65L379.62 315.9L380.47 315.13L381.31 314.35L382.12 313.55L382.92 312.73L383.7 311.9L384.46 311.05L385.21 310.19L385.94 309.31L386.65 308.42L387.34 307.51L388.02 306.59L388.69 305.66L389.34 304.71L389.97 303.76L390.59 302.78L391.2 301.8L391.36 301.53L391.53 301.26L391.69 300.98L391.85 300.71L392 300.43L392.16 300.15L392.31 299.86L392.46 299.58L392.61 299.29L392.75 299L392.89 298.71L393.03 298.41L393.16 298.11L393.29 297.8L393.42 297.5L393.55 297.19L393.67 296.87L393.78 296.55L393.89 296.23L394 295.9L393.69 295.87L393.38 295.85L393.07 295.82L392.77 295.8L392.48 295.78L392.19 295.76L391.9 295.74L391.61 295.72L391.33 295.71L391.05 295.69L390.77 295.67L390.5 295.65L390.23 295.63L389.96 295.6L389.7 295.58L389.43 295.55L389.17 295.52L388.91 295.48L388.66 295.44L388.4 295.4L388.1 295.35L387.81 295.28L387.55 295.19L387.31 295.09L387.09 294.98L386.9 294.85L386.73 294.71L386.58 294.55L386.45 294.38L386.35 294.2L386.27 294.01L386.22 293.8L386.19 293.59L386.19 293.36L386.21 293.12L386.25 292.88L386.33 292.62L386.42 292.35L386.55 292.08L386.7 291.8L386.96 291.39L387.24 290.99L387.53 290.61L387.83 290.24L388.14 289.89L388.47 289.56L388.81 289.24L389.16 288.94L389.52 288.65L389.9 288.39L390.29 288.14L390.69 287.9L391.1 287.69L391.52 287.49L391.96 287.31L392.41 287.15L392.86 287.01L393.33 286.89L393.81 286.78L394.3 286.7L394.57 286.66L394.82 286.65L395.07 286.64L395.31 286.66L395.54 286.69ZM391.56 290.85L390.73 291.83L390.1 293.1L391.33 293.47L392.46 293.54L393.46 293.28L394.3 292.7L394.67 292L394.64 291.18L394.29 290.31L393.7 289.5L392.56 290.09L391.56 290.85Z" id="g2oxt6WFem"></path><path d="M418 372.3C419.1 369 418.5 366.4 415.4 364.4C418.8 364.3 421.2 363.1 422.1 359.5C423.3 362.8 425.3 364.5 428.9 364.3C426 366.5 425.3 369 426.3 372.3C423.4 370.1 420.8 370.2 418 372.3Z" id="a7NhFkE85"></path><path d="M446.5 372.3C447.6 369 447 366.4 443.9 364.4C447.3 364.3 449.7 363.1 450.6 359.5C451.8 362.8 453.8 364.5 457.4 364.3C454.5 366.5 453.8 369 454.8 372.3C451.9 370.1 449.3 370.2 446.5 372.3Z" id="i9b2YkHnL"></path><path d="M389.5 372.3C390.6 369 390 366.4 386.9 364.4C390.3 364.3 392.7 363.1 393.6 359.5C394.8 362.8 396.8 364.5 400.4 364.3C397.4 366.5 396.8 369 397.8 372.3C394.9 370.1 392.3 370.2 389.5 372.3Z" id="ch8ij7xAU"></path></defs><g><g><use xlink:href="#cFf85LIM4" opacity="1" fill="#ca242a" fill-opacity="1"></use><g><use xlink:href="#cFf85LIM4" opacity="1" fill-opacity="0" stroke="#000000" stroke-width="1" stroke-opacity="0"></use></g></g><g><use xlink:href="#hLGtmWk9l" opacity="1" fill="#ffffff" fill-opacity="1"></use><g><use xlink:href="#hLGtmWk9l" opacity="1" fill-opacity="0" stroke="#000000" stroke-width="1" stroke-opacity="0"></use></g></g><g><use xlink:href="#bHfIjl6ix" opacity="1" fill="#ffffff" fill-opacity="1"></use><g><use xlink:href="#bHfIjl6ix" opacity="1" fill-opacity="0" stroke="#000000" stroke-width="1" stroke-opacity="0"></use></g></g><g><use xlink:href="#cgDHmeqrE" opacity="1" fill="#ffffff" fill-opacity="1"></use><g><use xlink:href="#cgDHmeqrE" opacity="1" fill-opacity="0" stroke="#000000" stroke-width="1" stroke-opacity="0"></use></g></g><g><use xlink:href="#b2iDBfC6id" opacity="1" fill="#ffffff" fill-opacity="1"></use><g><use xlink:href="#b2iDBfC6id" opacity="1" fill-opacity="0" stroke="#000000" stroke-width="1" stroke-opacity="0"></use></g></g><g><use xlink:href="#cKlZqx6a1" opacity="1" fill="#ffffff" fill-opacity="1"></use><g><use xlink:href="#cKlZqx6a1" opacity="1" fill-opacity="0" stroke="#000000" stroke-width="1" stroke-opacity="0"></use></g></g><g><use xlink:href="#dE225B5wl" opacity="1" fill="#ffffff" fill-opacity="1"></use><g><use xlink:href="#dE225B5wl" opacity="1" fill-opacity="0" stroke="#000000" stroke-width="1" stroke-opacity="0"></use></g></g><g><use xlink:href="#dJjlVwOnG" opacity="1" fill="#ffffff" fill-opacity="1"></use><g><use xlink:href="#dJjlVwOnG" opacity="1" fill-opacity="0" stroke="#000000" stroke-width="1" stroke-opacity="0"></use></g></g><g><use xlink:href="#b2ZyZCtGK2" opacity="1" fill="#ffffff" fill-opacity="1"></use><g><use xlink:href="#b2ZyZCtGK2" opacity="1" fill-opacity="0" stroke="#000000" stroke-width="1" stroke-opacity="0"></use></g></g><g><use xlink:href="#g2oid9ifJ" opacity="1" fill="#ffffff" fill-opacity="1"></use><g><use xlink:href="#g2oid9ifJ" opacity="1" fill-opacity="0" stroke="#000000" stroke-width="1" stroke-opacity="0"></use></g></g><g><use xlink:href="#d4n7Vrc84" opacity="1" fill="#ffffff" fill-opacity="1"></use><g><use xlink:href="#d4n7Vrc84" opacity="1" fill-opacity="0" stroke="#000000" stroke-width="1" stroke-opacity="0"></use></g></g><g><use xlink:href="#g2oxt6WFem" opacity="1" fill="#ffffff" fill-opacity="1"></use><g><use xlink:href="#g2oxt6WFem" opacity="1" fill-opacity="0" stroke="#000000" stroke-width="1" stroke-opacity="0"></use></g></g><g><use xlink:href="#a7NhFkE85" opacity="1" fill="#ffffff" fill-opacity="1"></use><g><use xlink:href="#a7NhFkE85" opacity="1" fill-opacity="0" stroke="#000000" stroke-width="1" stroke-opacity="0"></use></g></g><g><use xlink:href="#i9b2YkHnL" opacity="1" fill="#ffffff" fill-opacity="1"></use><g><use xlink:href="#i9b2YkHnL" opacity="1" fill-opacity="0" stroke="#000000" stroke-width="1" stroke-opacity="0"></use></g></g><g><use xlink:href="#ch8ij7xAU" opacity="1" fill="#ffffff" fill-opacity="1"></use><g><use xlink:href="#ch8ij7xAU" opacity="1" fill-opacity="0" stroke="#000000" stroke-width="1" stroke-opacity="0"></use></g></g></g></svg>